<svg width="44" height="60" viewBox="0 0 44 60" fill="none" xmlns="http://www.w3.org/2000/svg">
<path d="M26.4393 45.0137C29.6759 46.122 32.5338 46.828 36.6399 48.0898C35.0625 68.0219 16.2144 60.1063 26.4393 45.0137ZM43.2677 26.7035C43.0552 20.7187 42.001 12.868 33.6044 14.0982C29.6683 15.1254 26.76 19.4482 25.3922 26.9064C24.6409 31.0071 25.0778 36.763 25.964 40.2134C26.7731 42.6449 26.4979 42.4954 27.3675 42.9572C30.7334 43.7154 34.0655 44.5548 37.4587 45.4107C40.9058 42.9764 43.7369 30.0527 43.2677 26.7035ZM17.3551 26.2442C18.2406 22.7933 18.6775 17.0374 17.9266 12.9372C16.5598 5.47865 13.6511 1.15515 9.71432 0.128609C1.31771 -1.10152 0.263584 6.74905 0.0510349 12.7342C-0.418179 16.0828 2.41328 29.0073 5.86074 31.4411C9.25372 30.5853 12.5854 29.7466 15.9523 28.9876C16.8209 28.5263 16.5457 28.6757 17.3551 26.2442ZM6.67846 34.1209C8.25535 54.0528 27.1034 46.1372 16.8787 31.0448C13.6422 32.1533 10.7845 32.8592 6.67846 34.1209Z" fill="black"/>
</svg>
