<svg width="49" height="60" viewBox="0 0 49 60" fill="none" xmlns="http://www.w3.org/2000/svg">
<path d="M31.875 11.25C34.9816 11.25 37.5 8.73164 37.5 5.625C37.5 2.51836 34.9816 0 31.875 0C28.7684 0 26.25 2.51836 26.25 5.625C26.25 8.73164 28.7684 11.25 31.875 11.25ZM13.323 37.2035L11.5887 41.2488H3.75C1.6793 41.2488 0 42.9281 0 44.9988C0 47.0695 1.6793 48.7488 3.75 48.7488H12.8262C15.082 48.7488 17.1129 47.4082 17.9953 45.3398L19.0254 42.9352L17.775 42.1969C15.7453 40.998 14.2523 39.2238 13.323 37.2035ZM45 26.2488H39.8402L36.7863 20.0086C35.3215 17.0145 32.632 14.8254 29.5465 14.0391L21.2168 11.5617C17.9004 10.7648 14.4469 11.4973 11.7434 13.5703L7.09453 17.134C5.45039 18.3938 5.13867 20.7469 6.40078 22.391C7.66289 24.0352 10.0148 24.3434 11.6578 23.0848L16.309 19.5211C17.2078 18.8309 18.3527 18.5836 19.2703 18.8016L20.993 19.3137L16.6031 29.5547C15.1242 33.0094 16.4496 37.0559 19.6852 38.966L29.6438 44.8453L26.4246 55.1262C25.8059 57.102 26.9063 59.2055 28.882 59.8242C29.2559 59.9414 29.6332 59.9977 30.0047 59.9977C31.5996 59.9977 33.0785 58.9699 33.5812 57.3668L37.2891 45.5238C37.9816 43.0898 36.9504 40.4754 34.7531 39.15L27.5766 34.9148L31.2457 25.7414L33.6211 30.5965C34.5586 32.5113 36.5414 33.7477 38.673 33.7477H45C47.0707 33.7477 48.75 32.0684 48.75 29.9977C48.75 27.927 47.0707 26.2488 45 26.2488Z" fill="black"/>
</svg>
